<svg width="611" height="186" viewBox="0 0 611 186" fill="none" xmlns="http://www.w3.org/2000/svg">
<path fill-rule="evenodd" clip-rule="evenodd" d="M801 0L767.625 24.9722C734.25 49.5139 667.5 99.0278 600.75 102.472C534 105.486 467.25 62 400.5 52.5278C333.75 43.4861 267 68.0278 200.25 96.0139C133.5 124 66.7501 155 33.3751 170.5L6.10352e-05 186H33.3751C66.7501 186 133.5 186 200.25 186C267 186 333.75 186 400.5 186C467.25 186 534 186 600.75 186C667.5 186 734.25 186 767.625 186H801V0Z" fill="#1E90FF"/>
</svg>
